<svg xmlns="http://www.w3.org/2000/svg" width="500" height="500" style="width:100%;height:100%;transform:translate3d(0,0,0);content-visibility:visible" viewBox="0 0 500 500"><defs><clipPath id="c"><path d="M0 0h500v500H0z"/></clipPath><clipPath id="o"><path d="M0 0h430v430H0z"/></clipPath><clipPath id="n"><path d="M0 0h430v430H0z"/></clipPath><clipPath id="l"><path d="M0 0h430v430H0z"/></clipPath><clipPath id="m"><path d="M0 0h430v430H0z"/></clipPath><clipPath id="j"><path d="M0 0h430v430H0z"/></clipPath><clipPath id="k"><path d="M0 0h430v430H0z"/></clipPath><clipPath id="i"><path d="M0 0h430v500H0z"/></clipPath><clipPath id="g"><path d="M0 0h430v430H0z"/></clipPath><clipPath id="h"><path d="M0 0h430v430H0z"/></clipPath><clipPath id="e"><path d="M0 0h430v430H0z"/></clipPath><clipPath id="d"><path d="M0 0h430v430H0z"/></clipPath><filter id="a" width="100%" height="100%" x="0%" y="0%" filterUnits="objectBoundingBox"><feComponentTransfer in="SourceGraphic"><feFuncA tableValues="1.0 0.0" type="table"/></feComponentTransfer></filter><mask id="f" mask-type="alpha"><g filter="url(#a)"><path fill="#fff" d="M0 0h430v430H0z" opacity="0"/><use xmlns:ns1="http://www.w3.org/1999/xlink" ns1:href="#b"/></g></mask><g id="b" fill="red" style="display:block"><path d="M218 58.5 84.25 179.25 84 379.5h267v-199l-133-122z"/><path d="M319.528 73v93.184H273.5V73h46.028z"/></g></defs><g clip-path="url(#c)"><g fill="none" clip-path="url(#d)" opacity="0" style="display:block" transform="translate(35 35)"><path style="display:none"/><path style="display:none"/><path style="display:none"/><path style="display:none"/><path style="display:none"/><path stroke="#B48667" stroke-linecap="round" stroke-linejoin="round" stroke-width="12" d="M0 0" opacity="1" style="display:block" transform="translate(115.75 215.25)"/><g opacity="1" style="display:block"><path d="M272.724 103.305V72.749h47.138v74.507l-.343-.322"/><path stroke="#B48667" stroke-linecap="round" stroke-linejoin="round" stroke-width="12.925" d="M272.724 103.305V72.749h47.138v74.507l-.343-.322"/></g><g stroke="#B48667" stroke-linecap="round" stroke-linejoin="round" stroke-width="12.925" opacity="1" style="display:block"><path d="M176.096 379.504V241.278h83.64v138.226M52.97 207.345 217.915 56.58m0 0 162.626 150.766" opacity="1"/><path d="M83.932 183.193v196.31h266.265l-.048-199.997" opacity="1"/></g></g><g clip-path="url(#e)" opacity="0" style="display:block" transform="translate(35 35)"><g mask="url(#f)" style="display:block"><path fill="none" stroke="#B48667" stroke-linecap="round" stroke-linejoin="round" stroke-width="12" d="m352.3 181-14.6-13.7-72-67.8-26.8 25.2m98.8 42.6v106.3H260m-37.3-125.5-52.1-49-72.1 67.8L84 180.6m93.4 92.6H98.5V166.9"/></g><path fill="none" stroke="#B48667" stroke-linecap="round" stroke-linejoin="round" stroke-width="2.45" d="M-9.926-16.437v-5.792h8.935v14.123l-.065-.061" opacity="1" style="display:block" transform="translate(325.09 190.02) scale(5.2756)"/><g fill="none" opacity="1" style="display:block"><path stroke="#B48667" stroke-linecap="round" stroke-linejoin="round" stroke-width="12.925" d="M176.096 379.504V241.278h83.64v138.226" opacity="1"/><g opacity="1"><path d="M52.97 207.345 217.915 56.58m0 0 162.626 150.766m-296.61-24.152v196.31h266.265l-.048-199.997"/><path stroke="#B48667" stroke-linecap="round" stroke-linejoin="round" stroke-width="12.925" d="M52.97 207.345 217.915 56.58m0 0 162.626 150.766m-296.61-24.152v196.31h266.265l-.048-199.997"/></g></g></g><g clip-path="url(#g)" opacity="0" style="display:block" transform="translate(35 35)"><g fill="none" clip-path="url(#h)" opacity="1" style="display:block"><path style="display:none"/><path style="display:none"/><path style="display:none"/><path style="display:none"/><g style="display:none"><path/><path/></g><path style="display:none"/><path style="display:none"/><path style="display:none"/><g style="display:none"><path/><path/><path/></g><path style="display:none"/><g stroke="#B48667" stroke-linecap="round" stroke-linejoin="round" stroke-width="12.925" opacity="1" style="display:block"><path d="M272.724 103.305V72.749h47.138v74.507" opacity="1"/><path d="M246.937 113.524V90.76h-.364v55.499m73.226.559.068-73.674.037-.063v74.17" opacity="0"/></g><path style="display:none"/><g stroke="#B48667" stroke-linecap="round" stroke-linejoin="round" stroke-width="12.925" opacity="1" style="display:block"><path d="M176.096 379.504V241.278h83.64v138.226M52.97 207.345 217.915 56.58l162.626 150.766" opacity="1"/><path d="M83.932 183.193v196.31h266.265l-.048-199.997" opacity="1"/></g><path style="display:none"/><path style="display:none"/><path style="display:none"/><path style="display:none"/><path style="display:none"/><path style="display:none"/><g style="display:none"><path/><path/></g><path style="display:none"/><path style="display:none"/><path style="display:none"/><path style="display:none"/><path style="display:none"/></g></g><g clip-path="url(#i)" opacity="0" style="display:block" transform="translate(35)"><g opacity=".2" style="display:block"><path fill="none" stroke="#B48667" stroke-linecap="round" stroke-linejoin="round" stroke-width="12" d="M303.849-9.036c4.826-8.974 11.153-16.609 19.083-22.027" opacity="1"/></g><g opacity=".2" style="display:block"><path fill="none" stroke="#B48667" stroke-linecap="round" stroke-linejoin="round" stroke-width="12" d="M198.1 26.834C188.937 28.229 179.202 31.19 169 36c-28.597 13.481-52.151 20.329-66.418 17.11" opacity="1"/></g><g opacity=".2" style="display:block"><path fill="none" stroke="#B48667" stroke-linecap="round" stroke-linejoin="round" stroke-width="12" d="M337.386 37.443c11.982-12.351 29.46-19.899 54.291-20.622C423.015 15.909 441.5 35 437.088 63.429c-5.037 32.454-47.945 33.549-65.578 15.277" opacity="1"/></g><path fill="none" style="display:none"/><path fill="none" style="display:none"/><path fill="none" style="display:none"/><path fill="none" stroke="#B48667" stroke-linecap="round" stroke-linejoin="round" stroke-width="12.925" d="M313.969 179.734c35.578 32.989 67.538 62.616 67.538 62.616h.121M220.095 91.294l-1.214.29s13.585 12.598 32.91 30.509m97.429 292.432.924-.074V242.292m-34.73-133.805 4.627.085.132 63.07" opacity="1" style="display:block"/><path fill="none" stroke="#B48667" stroke-linecap="round" stroke-linejoin="round" stroke-width="2.45" d="M-9.926-16.437v-5.792h8.935v14.123" opacity="1" style="display:block" transform="translate(325.09 225.02) scale(5.2756)"/><g fill="none" stroke="#B48667" stroke-linecap="round" stroke-linejoin="round" stroke-width="12.925" opacity="1" style="display:block"><path d="M176.096 414.504V276.278h83.64v138.226M52.97 242.345 217.915 91.58l162.626 150.766" opacity="1"/><path d="M83.932 218.193v196.31h266.265l-.048-199.997" opacity="1"/></g></g><g clip-path="url(#j)" opacity="0" style="display:block" transform="translate(35 35)"><g fill="none" clip-path="url(#k)" opacity="1" style="display:block"><path style="display:none"/><path style="display:none"/><path style="display:none"/><path style="display:none"/><g style="display:none"><path/><path/></g><path style="display:none"/><path style="display:none"/><path style="display:none"/><g style="display:none"><path/><path/><path/></g><path style="display:none"/><g stroke="#B48667" stroke-linecap="round" stroke-linejoin="round" stroke-width="12.925" opacity="1" style="display:block"><path d="M272.724 103.305V72.749h47.138v74.507" opacity="1"/><path d="M246.937 113.524V90.76h-.364v55.499m73.226.559.068-73.674.037-.063v74.17" opacity="0"/></g><path style="display:none"/><g stroke="#B48667" stroke-linecap="round" stroke-linejoin="round" stroke-width="12.925" opacity="1" style="display:block"><path d="M176.096 379.504V241.278h83.64v138.226M52.97 207.345 217.915 56.58l162.626 150.766" opacity="1"/><path d="M83.932 183.193v196.31h266.265l-.048-199.997" opacity="1"/></g><path style="display:none"/><path style="display:none"/><path style="display:none"/><path style="display:none"/><path style="display:none"/><path style="display:none"/><g style="display:none"><path/><path/></g><path style="display:none"/><path style="display:none"/><path style="display:none"/><path style="display:none"/><path style="display:none"/></g></g><g clip-path="url(#l)" opacity="0" style="display:block" transform="translate(35 35)"><g fill="none" clip-path="url(#m)" opacity="1" style="display:block"><path style="display:none"/><path style="display:none"/><path style="display:none"/><path style="display:none"/><g style="display:none"><path/><path/></g><path style="display:none"/><path style="display:none"/><path style="display:none"/><g style="display:none"><path/><path/><path/></g><path style="display:none"/><g stroke="#B48667" stroke-linecap="round" stroke-linejoin="round" stroke-width="12.925" opacity="1" style="display:block"><path d="M272.724 103.305V72.749h47.138v74.507" opacity="1"/><path d="M246.937 113.524V90.76h-.364v55.499m73.226.559.068-73.674.037-.063v74.17" opacity="0"/></g><path style="display:none"/><g stroke="#B48667" stroke-linecap="round" stroke-linejoin="round" stroke-width="12.925" opacity="1" style="display:block"><path d="M176.096 379.504V241.278h83.64v138.226M52.97 207.345 217.915 56.58l162.626 150.766" opacity="1"/><path d="M83.932 183.193v196.31h266.265l-.048-199.997" opacity="1"/></g><path style="display:none"/><path style="display:none"/><path style="display:none"/><path style="display:none"/><path style="display:none"/><path style="display:none"/><g style="display:none"><path/><path/></g><path style="display:none"/><path style="display:none"/><path style="display:none"/><path style="display:none"/><path style="display:none"/></g></g><g fill="none" stroke="#B48667" stroke-linecap="round" stroke-linejoin="round" clip-path="url(#n)" style="display:block" transform="translate(35 35)"><path stroke-width="12.925" d="M313.969 144.734c35.578 32.989 67.538 62.616 67.538 62.616h.121M220.095 56.294l-1.214.29s13.585 12.598 32.91 30.509m97.429 292.432.924-.074V207.292m-34.73-133.805 4.627.085.132 63.07" style="display:block"/><path stroke-width="2.45" d="M-9.926-16.437v-5.792h8.935v14.123" style="display:block" transform="translate(325.09 190.02) scale(5.2756)"/><g stroke-width="12.925" style="display:block"><path d="M176.096 379.504V241.278h83.64v138.226M52.97 207.345 217.915 56.58l162.626 150.766"/><path d="M83.932 183.193v196.31h266.265l-.048-199.997"/></g></g><g clip-path="url(#o)" opacity="0" style="display:block" transform="translate(35 35)"><g fill="none" style="display:none"><path/><path/><path/><path/></g></g><path style="display:none"/></g></svg>